# xmcd
#
# Track frame offsets: 
#        150
#        21282
#        37473
#        57001
#        67949
#        83010
#        99681
#        115341
#        134204
#
# Disc length: 1977 seconds
#
# Revision: 0
# Processed by: cddbd v1.5.2PL0 Copyright (c) Steve Scherf et al.
# Submitted via: ExactAudioCopyFreeDBPlugin 1.0
#
DISCID=8007b709
DTITLE=Chris Mills And The Distant Stars - Alexandria
DYEAR=2013
DGENRE=Country-Rock
TTITLE0=Wild Places
TTITLE1=Alexandria
TTITLE2=Rubicon
TTITLE3=Blooms
TTITLE4=The Sweet Hereafter
TTITLE5=Castaways
TTITLE6=Helpless Bells
TTITLE7=Quiet Corners
TTITLE8=When We Were Young
EXTD=
EXTT0=
EXTT1=
EXTT2=
EXTT3=
EXTT4=
EXTT5=
EXTT6=
EXTT7=
EXTT8=
PLAYORDER=
